<?xml version="1.0" encoding="utf-8"?>
<!-- Generator: Adobe Illustrator 24.2.0, SVG Export Plug-In . SVG Version: 6.00 Build 0)  -->
<svg version="1.1" id="Layer_1" xmlns="http://www.w3.org/2000/svg" xmlns:xlink="http://www.w3.org/1999/xlink" x="0px" y="0px"
	 viewBox="0 0 594.7 594.7" style="enable-background:new 0 0 594.7 594.7;" xml:space="preserve">
<path d="M297.3,0C133.1,0,0,133.1,0,297.3s133.1,297.3,297.3,297.3s297.3-133.1,297.3-297.3S461.5,0,297.3,0z M286,304
	c0,0,40.7-80.5,43.2-85.6c2.5-5.1,5.1-6.6,5.1-6.6L500.8,92.3c0,0-116.5,162.1-119.3,165.9c-1.9,2.5-4.4,4.5-7.2,5.9L289,307.6
	C284,308.6,286,304,286,304z M450.2,457.3C345.5,560.7,185.5,527.7,121.5,437S62,280.2,98.2,200c36.4-80.5,153.4-117.6,159.3-119.6
	c5.8-2,4.9,2.6,4.9,2.6c-33.6,47.5-39.8,46.5-39.8,46.5c-35.2,13.8-58.2,41.4-58.2,41.4C55,288.4,125.8,475.2,278.6,483.7
	s193.8-131.4,194.5-138.3c0.5-4.2,1.8-8.2,3.8-11.9l39.8-38.7C517.2,396.4,450.2,457.3,450.2,457.3z"/>
</svg>
