<svg id="Layer_1" data-name="Layer 1" xmlns="http://www.w3.org/2000/svg" viewBox="0 0 355.27 95.32"><path d="M292,109.88h-5.71V15.79c1.67-.1,3.12-.26,4.57-.26,17,0,34-.13,51,.07a54.26,54.26,0,0,1,12.78,1.79c14.21,3.66,22,13.36,22.15,27,.14,12.79-8.07,23.72-21.21,27.59-4.42,1.31-9.12,1.75-13.72,2.31a50.06,50.06,0,0,1-7.94.67c-5.39-.23-8.81,1.39-15.5-3.5,6.73-3.78,9.44-2.85,15.25-2.59,3.42.15,7-.28,10.45-.38a33.49,33.49,0,0,0,9.74-2c11.75-4,17.42-12.77,16.32-24.82-.93-10.13-8.73-17.73-20.32-19.47a90.63,90.63,0,0,0-12.42-1c-13.33-.11-26.66.16-40-.15-4.57-.1-5.56,1.45-5.53,5.72.18,25.65.09,51.3.09,77Z" transform="translate(-21.51 -14.99)"/><path d="M27.83,110H21.51V16.5h79v5.27H27.83Z" transform="translate(-21.51 -14.99)"/><path d="M207.7,22.2,161.39,96.71c-2,3.25-4.25,6.39-6,9.79s-4.13,4.53-8.4,3.26c.81-1.45,1.5-2.82,2.3-4.13q26.44-43.2,52.92-86.38c3.52-5.74,7.89-5.67,11.48.15L241.15,64c.68,1.11,1.26,2.28,1.93,3.48-4.53,1.71-7,.11-9.34-3.75-7.42-12.42-15.2-24.62-22.86-36.9C210,25.49,209.07,24.19,207.7,22.2Z" transform="translate(-21.51 -14.99)"/><path d="M128.43,110.05h-5.61V16.43h5.61Z" transform="translate(-21.51 -14.99)"/><path d="M48.15,66.87V61.74h33c.07,1.59.14,3.18.23,5.13Z" transform="translate(-21.51 -14.99)"/><path d="M248.39,87c4.93-1.63,7.5.23,9.63,4.12,3.47,6.32,7.42,12.37,11.23,18.63-4.64,1.51-7.16,0-9.26-3.78C256.44,99.47,252.31,93.32,248.39,87Z" transform="translate(-21.51 -14.99)"/></svg>